<svg xmlns="http://www.w3.org/2000/svg" viewBox="0 0 53.85803 27.60699"><defs><style>.a{fill:#af8b10;}</style></defs><title>ring-image</title><path class="a" d="M18.177,3.283a14.0038,14.0038,0,0,1,6.211,2.22l0.013,0.02-0.009.023c-3.783,2.898-6.888,6.251-6.888,8.257s3.105,5.359,6.888,8.258l-0.004.043a14.016,14.016,0,0,1-6.211,2.22c-4.578,0-14.138-6.926-14.138-10.521,0-3.593,9.56-10.52,14.138-10.52m8.722,3.91,0.032-.012,0.028,0.012c2.96405,2.182,5.356,4.813,5.356,6.61s-2.392,4.429-5.356,6.61h-0.06c-2.964-2.181-5.356-4.813-5.356-6.61s2.392-4.428,5.356-6.61m2.556-1.67,0.015-.02a14.0038,14.0038,0,0,1,6.211-2.22c4.578,0,14.138,6.927,14.138,10.52,0,3.595-9.56,10.521-14.138,10.521a14.016,14.016,0,0,1-6.211-2.22l-0.004-.043c3.784-2.899,6.888-6.252,6.888-8.258S33.25,8.444,29.466,5.546ZM18.177,27.607c2.109,0,5.463-1.573,8.719-3.717h0.065c3.257,2.144,6.611,3.717,8.72,3.717,5.242,0,18.177-9.709,18.177-13.804S40.923,0,35.681,0c-2.109,0-5.463,1.572-8.72,3.717l-0.034.013-0.031-.013C23.64,1.572,20.286,0,18.177,0,12.935,0,0,9.708,0,13.803S12.935,27.607,18.177,27.607"/></svg>