<?xml version="1.0" encoding="utf-8"?>
<!-- Generator: Adobe Illustrator 18.0.0, SVG Export Plug-In . SVG Version: 6.00 Build 0)  -->
<!DOCTYPE svg PUBLIC "-//W3C//DTD SVG 1.1//EN" "http://www.w3.org/Graphics/SVG/1.1/DTD/svg11.dtd">
<svg version="1.1" id="Layer_1" xmlns="http://www.w3.org/2000/svg" xmlns:xlink="http://www.w3.org/1999/xlink" x="0px" y="0px"
	 viewBox="0 211.8 500 76.4" enable-background="new 0 211.8 500 76.4" xml:space="preserve">
<path id="Shape" d="M80.6,286.2l-0.1,1.8H66.7v-15.3h1.9v13.5C68.6,286.2,80.6,286.2,80.6,286.2z"/>
<path id="Shape_1_" d="M110.9,280.5c0,5.4-3.4,7.7-8.8,7.7c-5.5,0-8.8-2.3-8.8-7.7v-7.8h1.9v7.8c0,4.1,2.3,6.1,6.9,6.1
	c4.5,0,6.8-2,6.8-6.1v-7.8h2V280.5L110.9,280.5z"/>
<path id="Shape_2_" d="M135.6,280l8.1,8h-2.4l-7.2-7l-6.9,7h-2.6l7.8-8l-7.4-7.3h2.6l6.5,6.3l6.5-6.3h2.4L135.6,280z"/>
<path id="Shape_3_" d="M175.1,280.5c0,5.4-3.4,7.7-8.8,7.7c-5.5,0-8.8-2.3-8.8-7.7v-7.8h1.9v7.8c0,4.1,2.3,6.1,6.9,6.1
	c4.5,0,6.8-2,6.8-6.1v-7.8h2V280.5L175.1,280.5z"/>
<path id="Shape_4_" d="M200.5,281.2L200.5,281.2l1.2,1.5l5,5.3h-2.6l-5.5-6.3h-6.1v6.3h-1.9v-15.1h8.2c4.5,0,6.3,1.8,6.3,4.3
	C205.4,279.3,203.8,280.9,200.5,281.2L200.5,281.2z M198.9,274.3h-6.2v5.9h5.9c3.4,0,4.7-1.2,4.7-3.1
	C203.3,275.4,202.1,274.3,198.9,274.3L198.9,274.3z"/>
<path id="Shape_5_" d="M220.6,272.7l7.2,8.4l7.2-8.4h2.3l-8.5,9.9v5.4h-2v-5.4l-8.5-9.9H220.6z"/>
<path id="Shape_6_" d="M285.7,287.9v-7h-13.1v7h-1.9v-15.3h1.9v6.5h13.1v-6.5h1.9v15.3C287.6,287.9,285.7,287.9,285.7,287.9z"/>
<path id="Shape_7_" d="M311.1,288.2c-6.9,0-9.5-3-9.5-7.8s2.7-7.8,9.5-7.8s9.5,3,9.5,7.8S317.9,288.2,311.1,288.2L311.1,288.2z
	 M311.1,274.2c-5.4,0-7.4,2-7.4,6.2c0,4.1,2.2,6.2,7.4,6.2s7.4-2.2,7.4-6.2C318.5,276.2,316.4,274.2,311.1,274.2L311.1,274.2z"/>
<path id="Shape_8_" d="M340.9,274.4v13.5h-2v-13.5h-7.4l0.1-1.8h16.6l0.1,1.8H340.9z"/>
<path id="Shape_9_" d="M375.9,286.2l-0.1,1.8h-14.7v-15.3h14.2l0.1,1.8h-12.3v4.9h10.5v1.4h-10.5v5.5H375.9z"/>
<path id="Shape_10_" d="M404.3,286.2l-0.1,1.8h-13.8v-15.3h1.9v13.5C392.2,286.2,404.3,286.2,404.3,286.2z"/>
<path id="Shape_11_" d="M422.2,288.2c-2.7,0-4.9-0.5-6.8-1.5l0.4-1.6c1.9,0.9,3.9,1.6,6.5,1.6c3.5,0,5.4-1.5,5.4-3.1
	c0-3.9-12-1.1-12-6.8c0-2,1.9-4.5,7-4.5c2.3,0,4.5,0.4,6.2,1.1l-0.3,1.6c-2-0.7-3.8-0.9-5.8-0.9c-3.8,0-5.1,1.5-5.1,2.7
	c0,3.8,12,0.8,12,6.8C429.7,286.1,427.2,288.2,422.2,288.2"/>
<path id="Shape_12_" d="M468.9,244.6c0.4-3.4,0.8-8.2,0.8-13.1c0-8.4-1.2-16.5-1.2-17.8h-4.1c0,1.4-1.2,9.5-1.2,17.8
	c0,8.4,1.2,16.5,1.2,17.8H500v-4.7H468.9L468.9,244.6z"/>
<path id="Shape_13_" d="M386.3,244.6c0.3-3,0.7-7,0.8-11.2h23.1v-4.7h-23.1c-0.1-3.9-0.4-7.6-0.7-10.4h32.4v-4.7h-37
	c0,1.4-1.2,9.5-1.2,17.8s1.2,16.5,1.2,17.8h37.8v-4.7h-33.4V244.6z"/>
<path id="Shape_14_" d="M340.5,213.7h-41.7v4.7h18.4c-0.4,3.4-0.8,8.2-0.8,13.2c0,8.4,1.2,16.5,1.2,17.8h4.1c0-1.4,1.2-9.5,1.2-17.8
	c0-4.9-0.4-9.7-0.8-13.2h18.5L340.5,213.7L340.5,213.7z"/>
<path id="Shape_15_" d="M255.9,249.3c0-1.4,1.2-9.5,1.2-17.8c0-8.4-1.2-16.5-1.2-17.8h-4.1c0,1.4-1.2,9.5-1.2,17.8
	c0,8.4,1.2,16.5,1.2,17.8H255.9L255.9,249.3z"/>
<path id="Shape_16_" d="M208.6,218.3v-4.7h-35.5c0,1.4-1.2,9.5-1.2,17.8s1.2,16.5,1.2,17.8h4.1c0-1.2,1.1-8,1.2-15.5h20.5v-4.7
	h-20.5c-0.1-4.1-0.4-8-0.8-10.8h31.1V218.3z"/>
<path id="Shape_17_" d="M103.8,211.8c-6.9,0-24,14-24,19.7s17.1,19.7,24,19.7s24-14,24-19.7S110.7,211.8,103.8,211.8L103.8,211.8z
	 M103.8,245.4c-6.1,0-17.6-9.5-17.6-14c0-4.5,11.5-13.9,17.6-13.9s17.6,9.5,17.6,13.9C121.4,236,109.9,245.4,103.8,245.4
	L103.8,245.4z"/>
<path id="Shape_18_" d="M35.4,232.7c-8.4-5.3-28-5.7-28-10.7c0-2.6,6.1-5.1,13.2-4.9c3.9,0.1,10.3,1.6,14.4,4.9l2.8-4.2
	c-5.8-3.8-12.4-5.1-18.1-5.3c-12.3-0.3-19,5.8-19,9.7c0,3.2,3.9,6.1,7.2,7.4c11.7,4.9,24.8,4.9,24.8,9.9c0,2.8-5.5,6.2-13.1,6.1
	c-5.5-0.1-12.4-2.4-16.7-5.9l-3,4.3c4.3,3.1,12,6.3,19.7,6.3c8,0,13-1.9,16.3-4.7c3.4-2.7,3.9-5.4,3.9-6.5
	C40,237.4,38.6,234.7,35.4,232.7"/>
</svg>
